<svg width="32" height="32" viewBox="0 0 32 32" fill="none" xmlns="http://www.w3.org/2000/svg">
<g id="Close Button">
<path id="Vector" d="M24.8894 23.2728L17.6163 15.9997L24.8894 8.72661C25.1037 8.51229 25.2242 8.2216 25.2242 7.91849C25.2242 7.61539 25.1037 7.3247 24.8894 7.11037C24.6751 6.89604 24.3844 6.77563 24.0813 6.77563C23.7782 6.77563 23.4875 6.89604 23.2732 7.11037L16.0001 14.3835L8.72698 7.11037C8.51265 6.89604 8.22196 6.77563 7.91886 6.77563C7.61575 6.77563 7.32506 6.89604 7.11074 7.11037C6.89641 7.3247 6.776 7.61539 6.776 7.91849C6.776 8.2216 6.89641 8.51229 7.11074 8.72661L14.3838 15.9997L7.11074 23.2728C6.89641 23.4871 6.776 23.7778 6.776 24.0809C6.776 24.384 6.89641 24.6747 7.11074 24.8891C7.32506 25.1034 7.61575 25.2238 7.91886 25.2238C8.22196 25.2238 8.51265 25.1034 8.72698 24.8891L16.0001 17.616L23.2732 24.8891C23.4875 25.1034 23.7782 25.2238 24.0813 25.2238C24.3844 25.2238 24.6751 25.1034 24.8894 24.8891C25.1037 24.6747 25.2242 24.384 25.2242 24.0809C25.2242 23.7778 25.1037 23.4871 24.8894 23.2728Z" fill="white"/>
</g>
</svg>
